<svg width="38" height="38" viewBox="0 0 38 38" fill="none" xmlns="http://www.w3.org/2000/svg">
<path d="M1 16.1561C5.96134 12.5484 10.9832 10.6824 14.1294 13.9168C17.2756 17.1513 23.5076 18.6441 27.1378 15.3475C30.042 12.7101 36.4555 16.6122 37 16.1561" stroke="#0B2727" stroke-width="1.6"/>
<path d="M23.9991 1C27.2788 5.96134 28.9751 10.9832 26.0347 14.1294C23.0944 17.2756 21.7373 23.5076 24.7342 27.1378C27.1317 30.042 23.5844 36.4555 23.9991 37" stroke="#FF7E01" stroke-width="1.6"/>
<path d="M1 20.2061C5.96134 16.5985 10.9832 14.7325 14.1294 17.9669C17.2756 21.2013 23.5076 22.6941 27.1378 19.3975C30.042 16.7602 36.4555 20.6622 37 20.2061" stroke="#0B2727" stroke-width="1.6"/>
<path d="M19.5939 1C23.2016 5.96134 25.0676 10.9832 21.8332 14.1294C18.5987 17.2756 17.1059 23.5076 20.4025 27.1378C23.0398 30.042 19.1378 36.4555 19.5939 37" stroke="#FF7E01" stroke-width="1.6"/>
<path d="M1 25.1561C5.96134 21.5484 10.9832 19.6824 14.1294 22.9168C17.2756 26.1513 23.5076 27.6441 27.1378 24.3475C30.042 21.7101 36.4555 25.6122 37 25.1561" stroke="#0B2727" stroke-width="1.6"/>
<path d="M14.9991 1C18.2788 5.96134 19.9751 10.9832 17.0347 14.1294C14.0944 17.2756 12.7373 23.5076 15.7342 27.1378C18.1317 30.042 14.5844 36.4555 14.9991 37" stroke="#FF7E01" stroke-width="1.6"/>
</svg>
